<svg xmlns="http://www.w3.org/2000/svg" xmlns:xlink="http://www.w3.org/1999/xlink" width="210" height="210" version="1.1" viewBox="0 0 210 210"><title>prettier-icon-dark</title><desc>Created with sketchtool.</desc><g id="key" fill="none" fill-rule="evenodd" stroke="none" stroke-width="1"><g id="prettier-icon-dark"><g id="Icon-(Dark)"><g id="line-11" transform="translate(0.000000, 200.000000)"><rect id="line-11-dash-3" width="60" height="10" x="150" y="0" fill="#4D616E" opacity=".5" rx="5"/><rect id="line-11-dash-2" width="70" height="10" x="70" y="0" fill="#4D616E" opacity=".5" rx="5"/><rect id="line-11-dash-1" width="60" height="10" x="0" y="0" fill="#EA5E5E" rx="5"/></g><g id="line-10" transform="translate(0.000000, 180.000000)"><rect id="line-10-dash-5" width="50" height="10" x="160" y="0" fill="#4D616E" opacity=".5" rx="5"/><rect id="line-10-dash-4" width="20" height="10" x="130" y="0" fill="#4D616E" opacity=".5" rx="5"/><rect id="line-10-dash-3" width="50" height="10" x="70" y="0" fill="#4D616E" opacity=".5" rx="5"/><rect id="line-10-dash-2" width="20" height="10" x="40" y="0" fill="#F7B93E" rx="5"/><rect id="line-10-dash-1" width="30" height="10" x="0" y="0" fill="#56B3B4" rx="5"/></g><g id="line-9" transform="translate(0.000000, 160.000000)"><rect id="line-9-dash-3" width="100" height="10" x="110" y="0" fill="#4D616E" opacity=".5" rx="5"/><rect id="line-9-dash-2" width="30" height="10" x="70" y="0" fill="#4D616E" opacity=".5" rx="5"/><rect id="line-9-dash-1" width="60" height="10" x="0" y="0" fill="#BF85BF" rx="5"/></g><g id="line-8" transform="translate(0.000000, 140.000000)"><rect id="line-8-dash-4" width="30" height="10" x="180" y="0" fill="#4D616E" opacity=".5" rx="5"/><rect id="line-8-dash-3" width="30" height="10" x="140" y="0" fill="#4D616E" opacity=".5" rx="5"/><rect id="line-8-dash-2" width="100" height="10" x="30" y="0" fill="#F7B93E" rx="5"/><rect id="line-8-dash-1" width="20" height="10" x="0" y="0" fill="#BF85BF" rx="5"/></g><g id="line-7" transform="translate(0.000000, 120.000000)"><rect id="line-7-dash-4" width="40" height="10" x="170" y="0" fill="#4D616E" opacity=".5" rx="5"/><rect id="line-7-dash-3" width="40" height="10" x="120" y="0" fill="#BF85BF" rx="5"/><rect id="line-7-dash-2" width="50" height="10" x="60" y="0" fill="#EA5E5E" rx="5"/><rect id="line-7-dash-1" width="50" height="10" x="0" y="0" fill="#56B3B4" rx="5"/></g><g id="line-6" transform="translate(0.000000, 100.000000)"><rect id="line-6-dash-4" width="30" height="10" x="180" y="0" fill="#4D616E" opacity=".5" rx="5"/><rect id="line-6-dash-3" width="90" height="10" x="80" y="0" fill="#56B3B4" rx="5"/><rect id="line-6-dash-2" width="40" height="10" x="30" y="0" fill="#F7B93E" rx="5"/><rect id="line-6-dash-1" width="20" height="10" x="0" y="0" fill="#EA5E5E" rx="5"/></g><g id="line-5" transform="translate(0.000000, 80.000000)"><rect id="line-5-dash-4" width="20" height="10" x="190" y="0" fill="#4D616E" opacity=".5" rx="5"/><rect id="line-5-dash-3" width="60" height="10" x="120" y="0" fill="#F7B93E" rx="5"/><rect id="line-5-dash-2" width="40" height="10" x="70" y="0" fill="#4D616E" opacity=".5" rx="5"/><rect id="line-5-dash-1" width="60" height="10" x="0" y="0" fill="#BF85BF" rx="5"/></g><g id="line-4" transform="translate(0.000000, 60.000000)"><rect id="line-4-dash-5" width="20" height="10" x="190" y="0" fill="#4D616E" opacity=".5" rx="5"/><rect id="line-4-dash-4" width="60" height="10" x="120" y="0" fill="#EA5E5E" rx="5"/><rect id="line-4-dash-3" width="40" height="10" x="70" y="0" fill="#4D616E" opacity=".5" rx="5"/><rect id="line-4-dash-2" width="20" height="10" x="40" y="0" fill="#56B3B4" rx="5"/><rect id="line-4-dash-1" width="30" height="10" x="0" y="0" fill="#F7B93E" rx="5"/></g><g id="line-3" transform="translate(0.000000, 40.000000)"><rect id="line-3-dash-4" width="30" height="10" x="180" y="0" fill="#4D616E" opacity=".5" rx="5"/><rect id="line-3-dash-3" width="20" height="10" x="150" y="0" fill="#56B3B4" rx="5"/><rect id="line-3-dash-2" width="50" height="10" x="90" y="0" fill="#BF85BF" rx="5"/><rect id="line-3-dash-1" width="80" height="10" x="0" y="0" fill="#56B3B4" rx="5"/></g><g id="line-2" transform="translate(0.000000, 20.000000)"><rect id="line-2-dash-3" width="40" height="10" x="170" y="0" fill="#4D616E" opacity=".5" rx="5"/><rect id="line-2-dash-2" width="110" height="10" x="50" y="0" fill="#F7B93E" rx="5"/><rect id="line-2-dash-1" width="40" height="10" x="0" y="0" fill="#EA5E5E" rx="5"/></g><g id="line-1"><rect id="line-1-dash-2" width="70" height="10" x="140" y="0" fill="#4D616E" opacity=".5" rx="5"/><rect id="line-1-dash-1" width="130" height="10" x="0" y="0" fill="#56B3B4" rx="5"/></g></g></g></g></svg>